HIERARCHY
ROOT Hips
{
    OFFSET 0.000000 0.000000 0.000000
    CHANNELS 6 Xposition Yposition Zposition Zrotation Xrotation Yrotation
    JOINT Spine
    {
        OFFSET -0.000000 14.517291 0.000000
        CHANNELS 3 Zrotation Xrotation Yrotation
        JOINT Spine1
        {
            OFFSET -0.000000 37.558300 0.000000
            CHANNELS 3 Zrotation Xrotation Yrotation
            JOINT Neck
            {
                OFFSET -0.000000 37.404057 3.400369
                CHANNELS 3 Zrotation Xrotation Yrotation
                JOINT Head
                {
                    OFFSET -0.000000 24.785618 -3.540803
                    CHANNELS 3 Zrotation Xrotation Yrotation
                    End Site
                    {
                        OFFSET -0.000000 35.408028 0.000000
                    }
                }
            }
            JOINT LeftShoulder
            {
                OFFSET 6.992933 33.973492 -0.192664
                CHANNELS 3 Zrotation Xrotation Yrotation
                JOINT LeftArm
                {
                    OFFSET 21.527611 0.000000 0.000000
                    CHANNELS 3 Zrotation Xrotation Yrotation
                    JOINT LeftForeArm
                    {
                        OFFSET 56.353916 0.000000 0.000000
                        CHANNELS 3 Zrotation Xrotation Yrotation
                        JOINT LeftHand
                        {
                            OFFSET 47.774071 0.000000 0.000000
                            CHANNELS 3 Zrotation Xrotation Yrotation
                            End Site
                            {
                                OFFSET 26.556021 0.000000 0.000000
                            }
                        }
                    }
                }
            }
            JOINT RightShoulder
            {
                OFFSET -7.065357 33.973492 -0.192664
                CHANNELS 3 Zrotation Xrotation Yrotation
                JOINT RightArm
                {
                    OFFSET -21.527611 0.000000 0.000000
                    CHANNELS 3 Zrotation Xrotation Yrotation
                    JOINT RightForeArm
                    {
                        OFFSET -56.353916 0.000000 0.000000
                        CHANNELS 3 Zrotation Xrotation Yrotation
                        JOINT RightHand
                        {
                            OFFSET -47.774071 0.000000 0.000000
                            CHANNELS 3 Zrotation Xrotation Yrotation
                            End Site
                            {
                                OFFSET -26.556021 0.000000 0.000000
                            }
                        }
                    }
                }
            }
        }
    }
    JOINT LeftUpLeg
    {
        OFFSET 17.704014 0.000000 0.000000
        CHANNELS 3 Zrotation Xrotation Yrotation
        JOINT LeftLeg
        {
            OFFSET -0.000000 -81.181816 0.000000
            CHANNELS 3 Zrotation Xrotation Yrotation
            JOINT LeftFoot
            {
                OFFSET -0.000000 -62.821102 0.000000
                CHANNELS 3 Zrotation Xrotation Yrotation
                JOINT LeftToeBase
                {
                    OFFSET -0.000000 -11.507608 26.556021
                    CHANNELS 3 Zrotation Xrotation Yrotation
                    End Site
                    {
                        OFFSET -0.000000 0.000000 7.081605
                    }
                }
            }
        }
    }
    JOINT RightUpLeg
    {
        OFFSET -17.704014 0.000000 0.000000
        CHANNELS 3 Zrotation Xrotation Yrotation
        JOINT RightLeg
        {
            OFFSET -0.000000 -81.181816 0.000000
            CHANNELS 3 Zrotation Xrotation Yrotation
            JOINT RightFoot
            {
                OFFSET -0.000000 -62.821102 0.000000
                CHANNELS 3 Zrotation Xrotation Yrotation
                JOINT RightToeBase
                {
                    OFFSET -0.000000 -11.507608 26.556021
                    CHANNELS 3 Zrotation Xrotation Yrotation
                    End Site
                    {
                        OFFSET -0.000000 0.000000 7.081605
                    }
                }
            }
        }
    }
}
MOTION
Frames:    12
Frame Time:    0.008333
-21.338356    166.784485    -19.778908    -12.151496    -20.191715    39.253021    5.407935    2.637235    -11.243851    -5.179601    7.207731    -3.379467    34.470394    9.450386    -0.743165    -9.099207    -8.908113    -5.014696    17.100500    10.556624    -29.058113    -31.129120    5.420586    -55.482208    -1.591048    -30.572186    -100.056381    -15.721029    -29.687979    -20.916422    -6.481175    -6.354657    -16.575451    -0.444475    -0.579699    1.779203    26.749199    24.791515    58.243042    -15.495477    6.618771    26.705580    25.275017    -2.222940    8.028254    -3.501696    33.151360    -17.254984    6.608000    -17.424133    31.483397    0.000000    0.000000    0.000000    -94.683105    -47.307549    -59.157017    8.648064    20.242678    -7.709095    16.547005    19.525431    -24.386169    0.000000    0.000000    0.000000    
-21.322596    166.780670    -19.798418    -12.137081    -20.125727    39.138203    5.425318    2.677792    -11.274155    -5.341213    7.044035    -3.386261    34.671627    9.582769    -0.704229    -9.282943    -8.847786    -4.980432    17.121548    10.620835    -29.216980    -31.251686    5.261843    -55.426075    -1.646233    -30.265394    -100.044640    -15.575559    -29.472139    -20.812796    -6.919110    -6.541967    -16.508238    -0.863611    -0.909214    1.869061    26.742725    25.062054    58.081631    -15.736683    6.869718    26.993778    25.190001    -2.186534    8.119400    -3.462721    33.115505    -17.250046    6.579619    -17.419003    31.491913    0.000000    0.000000    0.000000    -94.794678    -47.392330    -59.309917    8.653801    20.236670    -7.732579    16.570555    19.539948    -24.468712    0.000000    0.000000    0.000000    
-21.306742    166.775177    -19.817129    -12.131963    -20.064648    39.026226    5.456981    2.707231    -11.308579    -5.504855    6.887083    -3.394474    34.850002    9.715450    -0.667976    -9.438278    -8.786195    -4.940326    17.134785    10.703259    -29.384838    -31.274433    5.161573    -55.358334    -1.723057    -30.129004    -100.081352    -15.525326    -29.427956    -20.778906    -7.383317    -6.669580    -16.494720    -1.185936    -1.126549    2.052754    26.661255    25.152880    58.058094    -16.008270    6.930723    27.185684    25.119062    -2.153964    8.166723    -3.461755    33.079636    -17.213121    6.581936    -17.413666    31.527264    0.000000    0.000000    0.000000    -94.900345    -47.477322    -59.466820    8.643059    20.244843    -7.762689    16.584448    19.559738    -24.499374    0.000000    0.000000    0.000000    
-21.289175    166.767700    -19.834471    -12.123374    -19.998566    38.926201    5.474385    2.723082    -11.346391    -5.671105    6.736659    -3.404086    35.067009    9.865058    -0.638658    -9.623507    -8.737425    -4.911219    17.186897    10.820154    -29.556314    -31.319887    5.011695    -55.324127    -1.767906    -29.963224    -100.088585    -15.500356    -29.314632    -20.759230    -7.782820    -6.762816    -16.457563    -1.492340    -1.389031    2.246161    26.285912    25.367447    57.911823    -16.320133    7.241796    27.947672    25.039474    -2.128222    8.208961    -3.457897    33.042950    -17.171974    6.579891    -17.411209    31.564693    0.000000    0.000000    0.000000    -95.018456    -47.535046    -59.605633    8.678731    20.237453    -7.788920    16.605133    19.561844    -24.600883    0.000000    0.000000    0.000000    
-21.235657    166.767700    -19.824276    -12.097839    -19.995188    38.806797    5.559022    2.747597    -11.369952    -5.903514    6.633570    -3.402421    35.291550    10.004155    -0.604135    -9.792517    -8.690087    -4.876506    17.255209    10.852578    -29.714136    -31.417650    4.928806    -55.249058    -1.838944    -29.806950    -100.133514    -15.462573    -29.242283    -20.732187    -8.135641    -6.848379    -16.385101    -1.803426    -1.710675    2.417391    25.905334    25.656332    57.708447    -16.660494    7.593377    29.014549    24.984928    -2.006237    8.242695    -3.457189    32.965744    -17.126690    6.805690    -17.339312    31.586283    0.000000    0.000000    0.000000    -95.047501    -47.604099    -59.627796    8.751739    20.228100    -7.834531    16.621689    19.529236    -24.672024    0.000000    0.000000    0.000000    
-21.227179    166.760483    -19.830217    -12.096469    -19.953842    38.695835    5.603601    2.767286    -11.391220    -6.095418    6.518301    -3.403781    35.511955    10.104819    -0.555214    -9.948859    -8.632577    -4.835155    17.333347    10.844256    -29.841969    -31.540152    4.823590    -55.174725    -1.948769    -29.570446    -100.214043    -15.390713    -29.149853    -20.601261    -8.513522    -7.019932    -16.330982    -2.094794    -2.039146    2.573585    26.194649    25.576899    57.761703    -16.559706    7.452644    28.327658    24.936760    -1.955577    8.287354    -3.457793    32.918831    -17.072018    6.801486    -17.350695    31.597002    0.000000    0.000000    0.000000    -95.146408    -47.690952    -59.723663    8.784676    20.249674    -7.889529    16.651884    19.526854    -24.748871    0.000000    0.000000    0.000000    
-21.214485    166.760910    -19.830805    -12.087172    -19.932508    38.592236    5.634935    2.801634    -11.405807    -6.260850    6.427776    -3.403339    35.702869    10.154116    -0.502842    -10.058577    -8.545869    -4.792659    17.414587    10.812048    -29.953173    -31.693743    4.694902    -55.127384    -2.047840    -29.268009    -100.269104    -15.288449    -28.967743    -20.609701    -8.824064    -7.187984    -16.259623    -2.357312    -2.206128    2.694147    25.986923    25.486910    57.899509    -16.586914    7.404929    28.469093    24.895164    -1.878116    8.329270    -3.460840    32.867043    -16.994320    6.584872    -17.424694    31.592228    0.000000    0.000000    0.000000    -95.206589    -47.765163    -59.763615    8.836828    20.249655    -7.942893    16.678051    19.527367    -24.825457    0.000000    0.000000    0.000000    
-21.207043    166.758759    -19.831001    -12.083485    -19.909939    38.494770    5.678175    2.823279    -11.429564    -6.443105    6.341826    -3.405091    35.872955    10.220895    -0.453615    -10.126186    -8.479048    -4.738351    17.505394    10.789360    -30.050322    -31.833288    4.550838    -55.074730    -2.145126    -28.982685    -100.335365    -15.247509    -28.794531    -20.598774    -9.166281    -7.396504    -16.220778    -2.586529    -2.464074    2.908256    25.867216    25.635759    57.831657    -16.803555    7.569182    28.689945    24.858917    -1.814332    8.376477    -3.453836    32.811497    -16.926477    6.570300    -17.434347    31.576853    0.000000    0.000000    0.000000    -95.270233    -47.835579    -59.820606    8.887388    20.252020    -7.988960    16.686131    19.534504    -24.892380    0.000000    0.000000    0.000000    
-21.199934    166.756470    -19.834597    -12.076718    -19.878019    38.403244    5.713154    2.842505    -11.446037    -6.619241    6.251676    -3.405384    36.066730    10.298302    -0.411564    -10.235291    -8.437922    -4.700174    17.589397    10.740820    -30.136852    -31.905193    4.477406    -55.007359    -2.236089    -28.784107    -100.435356    -15.179644    -28.714842    -20.528748    -9.398167    -7.429640    -16.235119    -2.844242    -2.859871    3.171357    25.753517    25.658821    57.890224    -16.837130    7.635183    28.686913    24.814611    -1.761176    8.419416    -3.446036    32.761890    -16.900587    6.568440    -17.431868    31.590757    0.000000    0.000000    0.000000    -95.377960    -47.932964    -59.906387    8.789763    20.406538    -7.759552    16.990088    19.366304    -24.994694    0.000000    0.000000    0.000000    
-21.206232    166.761337    -19.841087    -12.075378    -19.849897    38.310055    5.741794    2.868662    -11.456466    -6.788907    6.161503    -3.404215    36.235134    10.368637    -0.373259    -10.284682    -8.405314    -4.654301    17.685482    10.681313    -30.216654    -31.961910    4.421805    -54.955875    -2.279134    -28.634016    -100.497803    -15.129342    -28.621014    -20.528580    -9.664173    -7.618637    -16.149881    -3.074946    -3.192588    3.325410    25.751564    25.784805    57.808662    -17.140375    7.709743    28.755789    24.778830    -1.719623    8.481313    -3.426682    32.722813    -16.903372    6.556507    -17.422375    31.628675    0.000000    0.000000    0.000000    -95.439369    -48.011967    -59.944748    8.844102    20.383612    -7.857009    16.965092    19.429798    -25.063723    0.000000    0.000000    0.000000    
-21.216553    166.761490    -19.850092    -12.070701    -19.811768    38.229946    5.746703    2.896793    -11.459354    -6.925056    6.074953    -3.402547    36.390755    10.396332    -0.331282    -10.337570    -8.346877    -4.616808    17.772804    10.611819    -30.283360    -32.017056    4.360865    -54.927280    -2.303013    -28.481796    -100.542007    -15.104204    -28.498405    -20.541445    -9.919722    -7.776303    -16.119768    -3.282895    -3.512141    3.512519    25.645933    25.901688    57.854267    -17.256037    7.822433    28.967886    24.733824    -1.703359    8.536222    -3.402006    32.707554    -16.900827    6.541736    -17.417843    31.656187    0.000000    0.000000    0.000000    -95.523514    -48.085941    -60.007534    8.869438    20.379204    -7.901251    16.967058    19.480692    -25.110790    0.000000    0.000000    0.000000    
-21.236906    166.769272    -19.856144    -12.069686    -19.783560    38.166199    5.749383    2.924108    -11.474470    -7.053320    6.008795    -3.404373    36.553524    10.416270    -0.277102    -10.396727    -8.304557    -4.572459    17.863323    10.534559    -30.335854    -32.053280    4.291531    -54.883274    -2.341350    -28.348219    -100.610626    -15.107968    -28.410355    -20.520231    -10.126294    -7.904305    -16.074419    -3.460394    -3.750974    3.660284    25.382690    25.901346    58.079937    -17.346800    7.864436    29.097288    24.708206    -1.698378    8.558215    -3.398780    32.703442    -16.896643    6.531658    -17.390739    31.694809    0.000000    0.000000    0.000000    -95.583694    -48.153336    -60.043522    8.892261    20.374643    -7.936229    16.956171    19.526058    -25.168205    0.000000    0.000000    0.000000    
